<svg version="1.1" id="Layer_1" xmlns="http://www.w3.org/2000/svg" xmlns:xlink="https://www.w3.org/1999/xlink" x="0px" y="0px"
	 viewBox="0 0 484.4 148.1" style="enable-background:new 0 0 484.4 148.1;" xml:space="preserve">
<style type="text/css">
	.st0{display:none;}
	.st1{fill:#FFFFFF;}
</style>
<rect x="-1.7" y="-1.3" class="st0" width="486.4" height="152"/>
<g>
	<path class="st1" d="M215.3,35h-12.6l-10.2,35.3h9.8l2-8.2l1.3-7l1.5-6.3c0.5-2,1-4.9,1.6-7h0.1c0.6,2.1,1.2,5,1.8,7l1.6,6.4h-4.3
		l-1.3,7h6.9l2.3,8.2h10.2L215.3,35z"/>
	<path class="st1" d="M66.9,76l0.1,58.3l-11.5-6.5c0,0,2.1-38.1,2.4-43.1l-0.1-0.1c-1.6,4.7-3.9,11.7-5.8,16.7l-6.1,19.6l-9.2-4.6
		c0,0-7.8-43-9-49.4l-1.4-1.1c0.4,8.4-0.5,43.7-0.5,43.7l-9-5.2l1.4-57.8L35,56.6c0,0,7.5,36.9,8.7,42.9l0.1,0.1
		c1.7-4.9,11.3-30.3,11.3-30.3L66.9,76z"/>
	<path class="st1" d="M71.8,10.2l55.5,31.1l-11.9,7.3c0,0-35.3-22.4-39.8-25.3l-0.1,0.1c3.7,4,9.2,9.9,13.1,14.4l15.6,16.3l-9,6.2
		c0,0-44.8-15.7-51.5-17.9l-1.8,0.7c8.2,4.1,41.3,23.8,41.3,23.8l-9.4,5.7L19.4,40.4L37.5,30c0,0,38.8,12.7,45.2,14.7l0.1-0.1
		C79,40.4,59.5,17.7,59.5,17.7L71.8,10.2z"/>
	<path class="st1" d="M129.5,86.2c-0.6-7.6-7.3-8.6-21.1-3.5c-10.1,3.6-14.5,4.8-14.8,1.4c-0.2-2.7,3.2-7.5,10.7-12.2
		c7.4-4.7,13.1-6.6,16.2-7.6l3-12.1c-4.6,1.4-11,4.1-19.7,9.7c-18,11.4-28.3,25.3-27.6,34.4c0.6,7.8,9.4,7.4,22.4,2.5
		c9.3-3.5,13.1-3.9,13.4-0.6c0.3,3.5-3.7,8.5-11.7,13.5c-7.4,4.7-14.7,7.6-19.4,8.8l-2.7,12.2c4.4-1,13.2-4.8,21.9-10.3
		C121.1,109,130.3,95.2,129.5,86.2z"/>
	<path class="st1" d="M179.5,57.7c-0.1-4-0.2-8.7-0.2-14.3h-0.1c-1.1,4.7-2.6,10-3.7,13.9l-3.5,12.3h-7.4l-3-12.3
		c-0.9-3.8-2-9-2.8-13.9h-0.1c-0.2,5-0.4,10.3-0.5,14.3l-0.5,12.7h-8.7L151,35h12.8l2.3,9.5c1,3.9,2,8.6,2.8,13h0.2
		c1-4.3,2.2-9.3,3.2-13.1l2.7-9.5h12.5l1.8,35.4h-9.2L179.5,57.7z"/>
	<path class="st1" d="M262.8,35h9.4v15h0.1c0.7-1.3,1.5-2.6,2.3-3.9l6.8-11.1h11.6L281.8,50l11.7,20.3h-11L275.1,56l-2.8,3.6v10.7
		h-9.4V35z"/>
	<path class="st1" d="M319,56.1h-12.7v6.5h14.2v7.7h-23.7V35h23v7.7h-13.5v5.7H319V56.1z"/>
	<path class="st1" d="M332.6,42.9h-9v-8h27.7v8h-9.2v27.4h-9.5V42.9z"/>
	<path class="st1" d="M387,52.3c0,11.4-6.8,18.6-17.8,18.6c-11,0-17-8.2-17-18.1c0-10.3,6.7-18.5,17.6-18.5
		C381.2,34.4,387,42.8,387,52.3z M362.2,52.7c0,6.7,2.9,10.7,7.4,10.7c4.6,0,7.3-4.4,7.3-10.8c0-6.1-2.7-10.7-7.3-10.7
		C365.1,41.9,362.2,46.2,362.2,52.7z"/>
	<path class="st1" d="M433.9,35v35.4h-9.5V35H433.9z"/>
	<path class="st1" d="M169.7,98c-0.2-3.9-0.5-8.7-0.5-12.2h-0.1c-1,3.3-2.2,6.9-3.6,10.7l-5,13.7h-2.8l-4.6-13.5
		c-1.3-4-2.4-7.6-3.2-11h-0.1c-0.1,3.5-0.3,8.2-0.6,12.5l-0.8,12.2H145l2-28.3h4.7l4.8,13.7c1.2,3.5,2.1,6.6,2.9,9.5h0.1
		c0.7-2.9,1.7-6,3-9.5l5.1-13.7h4.7l1.8,28.3h-3.6L169.7,98z"/>
	<path class="st1" d="M194.2,97.1h-11v10.2h12.3v3h-16V82.1h15.3v3h-11.6v9h11V97.1z"/>
	<path class="st1" d="M200.2,82.5c2.2-0.4,4.9-0.6,7.8-0.6c5.2,0,9,1.2,11.5,3.6c2.5,2.3,4,5.6,4,10.1c0,4.6-1.5,8.4-4.1,11
		c-2.7,2.6-7.1,4.1-12.5,4.1c-2.6,0-4.8-0.1-6.7-0.3V82.5z M203.9,107.5c0.9,0.2,2.3,0.2,3.7,0.2c7.8,0,12.1-4.3,12.1-12
		c0-6.7-3.7-10.9-11.5-10.9c-1.9,0-3.3,0.2-4.3,0.4V107.5z"/>
	<path class="st1" d="M231.9,82.1v28.3h-3.7V82.1H231.9z"/>
	<path class="st1" d="M272.4,105.9c1.6,1,4,1.8,6.5,1.8c3.7,0,5.9-2,5.9-4.8c0-2.6-1.5-4.2-5.4-5.6c-4.6-1.6-7.5-4.1-7.5-8
		c0-4.4,3.7-7.7,9.2-7.7c2.9,0,5,0.7,6.2,1.4l-1,3c-0.9-0.5-2.8-1.3-5.3-1.3c-3.9,0-5.4,2.3-5.4,4.2c0,2.6,1.7,3.9,5.6,5.4
		c4.8,1.9,7.2,4.2,7.2,8.3c0,4.3-3.2,8.2-9.9,8.2c-2.7,0-5.7-0.8-7.2-1.8L272.4,105.9z"/>
	<path class="st1" d="M317.8,95.9c0,9.7-5.9,14.9-13.1,14.9c-7.5,0-12.7-5.8-12.7-14.4c0-9,5.6-14.9,13.1-14.9
		C312.7,81.6,317.8,87.5,317.8,95.9z M295.8,96.4c0,6.1,3.3,11.5,9.1,11.5c5.8,0,9.1-5.3,9.1-11.8c0-5.6-2.9-11.5-9-11.5
		C298.8,84.6,295.8,90.2,295.8,96.4z"/>
	<path class="st1" d="M322.5,82.1h3.7v25.2h12.1v3.1h-15.8V82.1z"/>
	<path class="st1" d="M344.6,82.1v16.8c0,6.3,2.8,9,6.6,9c4.2,0,6.9-2.8,6.9-9V82.1h3.7v16.5c0,8.7-4.6,12.3-10.7,12.3
		c-5.8,0-10.1-3.3-10.1-12.1V82.1H344.6z"/>
	<path class="st1" d="M373.5,85.2h-8.6v-3.1h21v3.1h-8.7v25.2h-3.7V85.2z"/>
	<path class="st1" d="M392.6,82.1v28.3H389V82.1H392.6z"/>
	<path class="st1" d="M423.2,95.9c0,9.7-5.9,14.9-13.1,14.9c-7.5,0-12.7-5.8-12.7-14.4c0-9,5.6-14.9,13.1-14.9
		C418.2,81.6,423.2,87.5,423.2,95.9z M401.2,96.4c0,6.1,3.3,11.5,9.1,11.5c5.8,0,9.1-5.3,9.1-11.8c0-5.6-2.9-11.5-9-11.5
		C404.2,84.6,401.2,90.2,401.2,96.4z"/>
	<path class="st1" d="M427.9,110.4V82.1h4l9.1,14.3c2.1,3.3,3.7,6.3,5.1,9.2l0.1,0c-0.3-3.8-0.4-7.2-0.4-11.6V82.1h3.4v28.3h-3.7
		l-9-14.4c-2-3.2-3.9-6.4-5.3-9.5l-0.1,0c0.2,3.6,0.3,7,0.3,11.7v12.1H427.9z"/>
	<path class="st1" d="M455.1,105.9c1.6,1,4,1.8,6.5,1.8c3.7,0,5.9-2,5.9-4.8c0-2.6-1.5-4.2-5.4-5.6c-4.6-1.6-7.5-4.1-7.5-8
		c0-4.4,3.7-7.7,9.2-7.7c2.9,0,5,0.7,6.2,1.4l-1,3c-0.9-0.5-2.8-1.3-5.3-1.3c-3.9,0-5.4,2.3-5.4,4.2c0,2.6,1.7,3.9,5.6,5.4
		c4.8,1.9,7.2,4.2,7.2,8.3c0,4.3-3.2,8.2-9.9,8.2c-2.7,0-5.7-0.8-7.2-1.8L455.1,105.9z"/>
	<path class="st1" d="M255.8,60.3c-0.9-3.1-2.2-5.3-4.5-6.3v-0.2c2.8-1,6.1-4.1,6.1-8.6c0-3.5-1.2-6-3.5-7.7c-2.7-2-6.6-2.8-12-2.8
		c-4.7,0-8.8,0.3-11.4,0.8v34.9h9.4V57.1v-6.8v-8.4c0.5-0.1,1.4-0.2,3.2-0.2c3.2,0,4.9,1.5,4.9,4.2s-2.1,4.4-5.6,4.4h-0.5v6.8
		c2.6,0.1,3.8,1.1,4.7,5.1c1,4.4,1.9,7.1,2.5,8.2h9.7C258,69,256.9,63.9,255.8,60.3z"/>
	<path class="st1" d="M417.4,60.3c-0.9-3.1-2.2-5.3-4.5-6.3v-0.2c2.8-1,6.1-4.1,6.1-8.6c0-3.5-1.2-6-3.5-7.7c-2.7-2-6.6-2.8-12-2.8
		c-4.7,0-8.8,0.3-11.4,0.8v34.9h9.4V57.1v-6.8v-8.4c0.5-0.1,1.4-0.2,3.2-0.2c3.2,0,4.9,1.5,4.9,4.2s-2.1,4.4-5.6,4.4h-0.5v6.8
		c2.6,0.1,3.8,1.1,4.7,5.1c1,4.4,1.9,7.1,2.5,8.2h9.7C419.6,69,418.5,63.9,417.4,60.3z"/>
	<g>
		<polygon class="st1" points="460.6,50.1 469.3,35.2 458.9,35.2 455.4,41.2 		"/>
		<polygon class="st1" points="459.1,52.7 453.9,43.8 453.9,43.8 448.9,35.2 438.6,35.2 448.8,52.7 438.6,70.1 449,70.1 453.9,61.6 
			458.9,70.1 469.3,70.1 459.1,52.7 		"/>
	</g>
	<path class="st1" d="M250.1,82.1h-4.4l-9.6,28.3h3.8l2.9-8.9l0.7-2.9l2.8-8.2c0.6-1.7,1-3.5,1.4-5.1h0.1c0.4,1.6,0.8,3.3,1.5,5.2
		l2.8,8.1h-7l-0.7,2.9h8.4l3,8.9h3.9L250.1,82.1z"/>
</g>
</svg>